<?xml version="1.0" encoding="UTF-8" standalone="no"?>
<!-- Created with Inkscape (http://www.inkscape.org/) -->

<svg
   width="83.309608mm"
   height="58.208321mm"
   viewBox="0 0 83.309608 58.208321"
   version="1.1"
   id="svg1"
   xml:space="preserve"
   sodipodi:docname="cardtestimonios.svg"
   inkscape:version="1.3.2 (091e20ef0f, 2023-11-25, custom)"
   xmlns:inkscape="http://www.inkscape.org/namespaces/inkscape"
   xmlns:sodipodi="http://sodipodi.sourceforge.net/DTD/sodipodi-0.dtd"
   xmlns="http://www.w3.org/2000/svg"
   xmlns:svg="http://www.w3.org/2000/svg"><sodipodi:namedview
     id="namedview1"
     pagecolor="#505050"
     bordercolor="#eeeeee"
     borderopacity="1"
     inkscape:showpageshadow="0"
     inkscape:pageopacity="0"
     inkscape:pagecheckerboard="0"
     inkscape:deskcolor="#505050"
     inkscape:document-units="mm"
     inkscape:zoom="0.69922028"
     inkscape:cx="283.17257"
     inkscape:cy="43.620016"
     inkscape:window-width="1366"
     inkscape:window-height="736"
     inkscape:window-x="0"
     inkscape:window-y="0"
     inkscape:window-maximized="1"
     inkscape:current-layer="layer1" /><defs
     id="defs1" /><g
     inkscape:label="Capa 1"
     inkscape:groupmode="layer"
     id="layer1"
     transform="translate(-41.03513,-44.979563)"><path
       style="fill:#1a1a1a;fill-opacity:1"
       d="m 111.3944,102.99601 c 0,-0.10554 0.31997,-1.00745 0.71106,-2.00425 0.46063,-1.174087 0.61435,-1.875254 0.43648,-1.990929 -0.49639,-0.322811 -0.88296,-1.318247 -0.88296,-2.273659 0,-3.101427 4.95953,-3.812418 5.78327,-0.829081 0.37484,1.357551 -0.0444,2.560736 -1.77776,5.102239 l -1.49197,2.18753 -1.38906,2e-5 c -0.76398,10e-6 -1.38906,-0.0863 -1.38906,-0.19187 z m 6.61458,0.099 c 0,-0.0656 0.3482,-0.93476 0.77378,-1.93143 0.6574,-1.539573 0.71986,-1.871887 0.41529,-2.209482 -1.21704,-1.349008 -0.97605,-3.621906 0.47802,-4.50851 1.36917,-0.834828 2.71297,-0.688867 3.81636,0.414526 0.87191,0.871906 0.92431,1.019026 0.80506,2.260085 -0.10403,1.082665 -0.42181,1.752361 -1.72315,3.631451 l -1.59559,2.30397 -1.48488,0.0794 c -0.81669,0.0436 -1.48489,0.0257 -1.48489,-0.04 z M 47.100649,78.581645 V 56.885811 h 0.661458 0.661459 v 21.034376 21.034376 h 29.765624 29.76563 v 0.661458 0.661459 H 77.527732 47.100649 Z M 118.00898,70.114978 V 50.271227 H 87.71419 57.419399 V 49.609769 48.948311 H 88.375649 119.3319 V 69.45352 89.958729 h -0.66146 -0.66146 z M 42.319659,53.639873 c -1.872434,-1.261833 -1.710009,-3.080641 0.56741,-6.353764 l 1.604882,-2.306548 h 1.436641 c 0.790152,0 1.43664,0.04316 1.43664,0.0959 0,0.05275 -0.340985,0.9228 -0.757745,1.933454 l -0.757746,1.837552 0.625454,0.727134 c 1.123727,1.30641 0.546577,3.600934 -1.076317,4.279023 -1.28697,0.53773 -2.043103,0.485487 -3.079219,-0.212751 z m 7.294532,0.361224 c -0.291042,-0.127829 -0.812289,-0.537215 -1.158326,-0.909745 -0.540867,-0.582276 -0.612692,-0.875908 -0.511812,-2.092379 0.09914,-1.195532 0.360926,-1.77219 1.687492,-3.717212 l 1.570146,-2.30216 1.509565,-2e-5 1.509565,-2e-5 -0.792708,1.862834 -0.792707,1.862835 0.539913,0.686388 c 0.818978,1.041162 0.733577,2.771199 -0.187691,3.802188 -0.780902,0.873907 -2.360898,1.252013 -3.373437,0.807291 z"
       id="path1"
       sodipodi:nodetypes="sssssscsssssssssccssccccccccccccccccccccccccccsscssscssssssscccccsss" /></g></svg>
