<?xml version="1.0" encoding="UTF-8" standalone="no"?>
<!-- Created with Inkscape (http://www.inkscape.org/) -->

<svg
   width="1417.6982"
   height="261.76233"
   viewBox="0 0 375.09933 69.25795"
   version="1.1"
   id="svg1"
   xml:space="preserve"
   sodipodi:docname="fungilovers.svg"
   inkscape:version="1.3.2 (091e20ef0f, 2023-11-25, custom)"
   xmlns:inkscape="http://www.inkscape.org/namespaces/inkscape"
   xmlns:sodipodi="http://sodipodi.sourceforge.net/DTD/sodipodi-0.dtd"
   xmlns="http://www.w3.org/2000/svg"
   xmlns:svg="http://www.w3.org/2000/svg"><sodipodi:namedview
     id="namedview1"
     pagecolor="#505050"
     bordercolor="#eeeeee"
     borderopacity="1"
     inkscape:showpageshadow="0"
     inkscape:pageopacity="0"
     inkscape:pagecheckerboard="0"
     inkscape:deskcolor="#505050"
     inkscape:zoom="0.41334607"
     inkscape:cx="708.84912"
     inkscape:cy="131.85078"
     inkscape:window-width="1366"
     inkscape:window-height="736"
     inkscape:window-x="0"
     inkscape:window-y="0"
     inkscape:window-maximized="1"
     inkscape:current-layer="g43" /><defs
     id="defs1" /><g
     id="layer1"
     transform="translate(-71.558319,-304.05954)"><g
       id="g66"><g
         id="g43"
         transform="matrix(0.77042622,0,0,0.77042622,-149.98857,490.02546)"><path
           d="m 355.29018,-151.48493 m -38.78498,-5.39672 c -0.57023,-0.6153 -0.85857,-1.79616 -0.85857,-3.5162 0,-1.8424 -0.30313,-4.23315 -0.76982,-6.07164 -1.25567,-4.94651 -4.58023,-8.52375 -11.45588,-12.32658 -3.29505,-1.82244 -4.97406,-2.8703 -6.53599,-4.0791 -1.65493,-1.28077 -3.572,-3.36342 -4.16065,-4.52003 -0.648,-1.2732 -3.95375,-11.45452 -4.3625,-13.43597 -0.49527,-2.40086 -0.69216,-5.55815 -0.38267,-6.13643 0.31393,-0.58658 1.01867,-0.52391 1.57756,0.1403 0.70571,0.83869 2.07337,3.75752 3.90697,8.33815 0.91135,2.2767 1.73221,4.21467 1.82415,4.3066 0.21057,0.21058 -0.0151,-1.44998 -0.28763,-2.11624 -0.22356,-0.54659 -2.33873,-7.78305 -3.22338,-11.02789 -0.79444,-2.91394 -0.85782,-3.42661 -0.52277,-4.22849 0.56362,-1.34894 1.55705,-1.07114 2.69677,0.75411 0.36795,0.58927 0.90337,1.40996 1.18981,1.82375 0.59189,0.85501 1.98646,3.6094 2.64149,5.21713 0.24183,0.59356 0.46766,1.05123 0.50184,1.01705 0.0342,-0.0342 -0.16556,-1.25662 -0.44386,-2.71653 -0.61419,-3.22187 -0.53696,-3.61169 0.71544,-3.61169 0.67464,0 0.88286,0.1057 1.47795,0.75031 0.38097,0.41266 0.80743,1.09798 0.94767,1.52294 0.23793,0.72094 0.26579,0.74345 0.41632,0.3365 0.20948,-0.56627 0.47469,-0.72247 1.23265,-0.72599 0.82128,-0.004 1.40181,0.59797 1.82285,1.88958 0.75255,2.3086 2.8076,7.27527 3.37689,8.1613 0.77905,1.21249 2.85154,3.16301 4.53235,4.26562 0.72024,0.47247 2.19823,1.43576 3.28444,2.14066 2.47328,1.60504 4.77454,3.86844 5.58775,5.49581 0.58463,1.16995 0.7123,1.6455 1.73946,6.47921 0.59328,2.79184 1.61819,5.56345 4.03926,10.92306 0.78292,1.73319 1.42348,3.3667 1.42348,3.63003 0,0.26333 -0.12031,0.70734 -0.26737,0.98668 -1.00832,1.91539 -6.44352,5.49683 -9.87647,6.50794 -1.30276,0.38371 -1.26754,0.38713 -1.78754,-0.17395 z m 2.47078,-0.84494 c 2.89147,-1.1578 5.98191,-3.12941 7.6555,-4.884 0.60345,-0.63265 1.05275,-1.27472 1.05275,-1.5044 0,-0.22038 -0.75582,-2.10989 -1.6796,-4.19891 -2.91572,-6.59354 -3.44746,-8.21168 -4.43126,-13.48474 -0.36069,-1.93326 -1.14001,-3.60681 -2.34794,-5.04211 -1.04336,-1.23976 -2.01507,-1.98057 -6.02395,-4.59256 -5.16361,-3.36435 -6.04715,-4.52306 -8.56812,-11.23651 -0.67846,-1.80674 -1.3238,-3.39373 -1.43411,-3.52664 -0.11031,-0.13291 -0.39014,-0.24166 -0.62185,-0.24166 -0.36819,0 -0.43584,0.12447 -0.53665,0.98746 -0.12997,1.1125 -0.1274,1.12645 0.75093,4.07139 0.82756,2.77469 1.46961,4.36754 2.30538,5.71938 0.54611,0.88331 0.75395,1.07714 1.08874,1.01534 0.24914,-0.046 0.4567,0.0355 0.52166,0.2048 0.12846,0.33475 0.18461,0.27846 -0.74735,0.74916 -0.41379,0.209 -1.47179,0.89576 -2.35109,1.52614 -0.87932,0.63038 -1.68339,1.17882 -1.78684,1.21876 -0.36095,0.13935 1.51368,1.83625 2.64558,2.39474 0.91451,0.45123 1.60492,0.61527 3.47962,0.82679 3.1268,0.35277 3.44249,0.42404 4.97198,1.12237 1.18484,0.54098 3.47962,2.34333 3.47962,2.73294 0,0.45792 -0.62542,0.25272 -1.38465,-0.45431 -1.72963,-1.6107 -3.83507,-2.38848 -7.36143,-2.71939 -2.31804,-0.21753 -3.71827,-0.72582 -5.09993,-1.85132 -1.32331,-1.07796 -2.31314,-2.59334 -3.07717,-4.71099 -0.68602,-1.90143 -1.36603,-3.14552 -1.81306,-3.31706 -0.9173,-0.352 -1.70051,1.14835 -1.50125,2.87583 0.27918,2.42028 1.96341,7.89283 2.94883,9.58164 0.37917,0.6498 0.34073,0.97302 -0.11572,0.97302 -0.45588,0 -1.82222,-3.15492 -2.60759,-6.02098 -0.24909,-0.90903 -1.00141,-2.78276 -1.67183,-4.16385 -0.67041,-1.3811 -1.57963,-3.48444 -2.0205,-4.67409 -1.47883,-3.99059 -3.55538,-8.27586 -4.01031,-8.27586 -0.29194,0 -0.003,3.89877 0.43205,5.83072 0.22133,0.98276 1.21614,4.24138 2.2107,7.24137 1.51474,4.56909 1.93822,5.63774 2.60872,6.58307 1.53837,2.16895 4.2604,4.4327 7.37519,6.1335 4.2963,2.34596 5.92106,3.35404 8.08162,5.01425 4.51373,3.46841 6.63857,7.86659 6.92703,14.33813 0.13498,3.0281 0.45254,4.32601 1.05845,4.32601 0.0994,0 0.81845,-0.25534 1.59785,-0.56743 z m -17.07967,-34.18176 0.39793,-0.32915 -0.65868,-0.94044 c -0.36227,-0.51724 -1.67915,-3.39498 -2.9264,-6.39498 -2.03659,-4.89859 -3.75107,-8.52683 -4.39948,-9.31034 -0.12842,-0.15517 -0.54396,-0.80239 -0.92344,-1.43826 -0.37947,-0.63587 -0.8188,-1.20556 -0.97628,-1.26599 -0.38217,-0.14665 -0.70233,0.70633 -0.55075,1.46733 0.33323,1.67295 3.1208,11.56885 3.65351,12.96998 l 0.19569,0.51469 0.4463,-0.51886 c 0.33358,-0.3878 0.61745,-0.51887 1.12385,-0.51887 1.06905,0 1.92976,1.00048 2.5728,2.9906 0.40069,1.24006 1.28445,3.10344 1.4719,3.10344 0.0963,0 0.35418,-0.14811 0.57305,-0.32915 z m 2.14043,-1.47459 c 0.54061,-0.37137 1.01333,-0.70506 1.05047,-0.74152 0.0372,-0.0365 -0.10035,-0.30394 -0.30554,-0.59438 -0.82366,-1.16581 -1.76388,-3.3546 -2.58095,-6.00835 -1.43838,-4.67171 -2.02955,-6.25289 -2.59369,-6.93729 -0.61316,-0.74387 -1.45256,-0.91375 -1.45256,-0.29397 0,0.1983 0.42657,2.47428 0.94794,5.05771 0.81835,4.05502 1.07192,4.97987 1.85487,6.76522 0.77417,1.76537 1.75398,3.4278 2.02028,3.4278 0.042,0 0.51857,-0.30385 1.05918,-0.67522 z m 47.32444,35.87059 c -2.31834,-0.98926 -4.81175,-2.57141 -7.10739,-4.5099 -1.17879,-0.99539 -2.08681,-2.32496 -2.08681,-3.0556 0,-0.28028 0.95328,-2.44318 2.1184,-4.80643 2.92376,-5.93033 3.4894,-7.44024 4.6395,-12.38458 1.02107,-4.38962 2.9354,-6.54628 8.75933,-9.86814 3.4625,-1.97495 5.54842,-3.70434 6.71771,-5.56953 0.43404,-0.69235 2.78072,-5.78195 2.78072,-6.03097 0,-0.30237 1.04987,-2.46745 1.37323,-2.83193 0.71825,-0.80958 2.02337,-0.72287 2.30133,0.1529 0.11285,0.35554 0.17606,0.31025 0.59038,-0.423 0.94087,-1.66508 2.10074,-2.37463 3.05068,-1.86624 0.53494,0.28629 0.52073,1.22421 -0.0538,3.55018 -0.24739,1.0015 -0.50448,2.07483 -0.57131,2.38518 -0.0668,0.31034 0.36834,-0.40996 0.96704,-1.60068 0.59874,-1.19071 1.46114,-2.71422 1.91654,-3.38558 0.4554,-0.67135 1.1508,-1.69895 1.5454,-2.28355 0.75,-1.11113 1.5416,-1.85244 1.978,-1.85244 0.1412,0 0.426,0.16928 0.6329,0.37617 0.5457,0.54563 0.4858,1.97771 -0.173,4.13793 -0.9815,3.21852 -2.4856,7.74885 -3.4307,10.33308 -0.5102,1.39505 -0.9026,2.75131 -0.872,3.01391 0.056,0.47634 0.8332,-1.10435 3.2662,-6.63874 1.5805,-3.59538 3.2419,-6.14399 4.005,-6.14399 1.5583,0 0.6367,5.93741 -1.9368,12.47751 -0.4544,1.15461 -1.0939,2.81872 -1.4213,3.69803 -1.2183,3.27242 -1.4089,3.66326 -2.3321,4.78139 -2.1867,2.6483 -3.83714,3.8002 -9.98928,6.97194 -4.04406,2.08492 -6.4214,3.66453 -8.13183,5.40317 -1.63773,1.66471 -1.93346,2.04154 -2.79752,3.56464 -1.31126,2.31137 -1.81291,4.35138 -2.31229,9.40314 -0.23255,2.35258 -0.83215,3.54999 -1.77178,3.53833 -0.22537,-0.003 -0.96986,-0.24409 -1.65443,-0.5362 z m 2.2191,-0.9164 c 0.16332,-0.38793 0.37084,-1.38244 0.46118,-2.21002 0.56707,-5.19494 0.88315,-6.61333 1.95878,-8.78977 1.37111,-2.77433 3.55025,-5.20036 6.38617,-7.10971 0.82758,-0.55719 3.27084,-1.92999 5.42947,-3.05065 4.80899,-2.49662 6.73546,-3.74809 8.50965,-5.52805 1.5569,-1.562 2.1453,-2.47525 2.7826,-4.31915 0.2465,-0.71319 0.9287,-2.52398 1.5159,-4.02397 1.3326,-3.40384 2.082,-5.6551 2.567,-7.7116 0.4622,-1.95969 0.6913,-4.70219 0.3928,-4.70219 -0.1135,0 -0.6205,0.67294 -1.1266,1.49543 -0.8512,1.38318 -1.5716,2.88414 -3.8862,8.09704 -0.4823,1.08621 -1.3227,2.779 -1.8675,3.76176 -0.5448,0.98275 -1.2798,2.67554 -1.63334,3.76175 -0.79865,2.45387 -2.21817,5.33818 -2.66812,5.42131 -0.49137,0.0908 -0.4079,-0.27216 0.43534,-1.89297 0.83153,-1.59831 2.2613,-5.74276 2.62792,-7.6174 0.4122,-2.10836 -0.02,-3.81062 -0.9684,-3.81062 -0.52009,0 -1.28193,1.09825 -2.06218,2.97274 -1.30746,3.14111 -2.59695,4.68444 -4.7595,5.69642 -1.41043,0.66002 -2.72691,0.92331 -4.61669,0.92331 -2.4936,0 -4.76668,0.79187 -6.63026,2.30978 -0.8881,0.72336 -1.10222,0.82373 -1.28569,0.60266 -0.27166,-0.32734 0.31659,-0.9271 1.96377,-2.00219 1.57392,-1.02727 3.15619,-1.46471 6.03238,-1.66773 2.85412,-0.20146 3.42111,-0.34014 4.80396,-1.17499 1.2634,-0.76274 1.87315,-1.27665 1.87315,-1.57875 0,-0.26986 -2.70886,-2.40947 -3.98645,-3.14872 -0.6111,-0.3536 -0.84939,-0.59849 -0.77388,-0.79528 0.0729,-0.19 0.25344,-0.24814 0.54404,-0.1752 0.35727,0.0897 0.53648,-0.0384 1.00382,-0.71771 0.92015,-1.33739 1.80037,-3.23986 2.72371,-5.88693 0.68993,-1.97789 0.86493,-2.73068 0.86493,-3.72064 0,-1.32178 -0.20956,-1.62233 -0.87871,-1.26023 -0.19883,0.1076 -0.85278,1.4028 -1.5505,3.07091 -2.9476,7.0471 -3.92624,8.30344 -8.60962,11.05263 -4.2346,2.48576 -5.21767,3.15457 -6.52196,4.43712 -1.75726,1.72797 -2.33015,2.92763 -3.32184,6.9562 -0.99778,4.05328 -1.43145,5.17816 -4.16083,10.79248 -1.22608,2.52208 -2.22925,4.73117 -2.22925,4.90909 0,1.44582 5.58533,5.73178 9.21087,7.06803 1.00072,0.36885 1.12807,0.33071 1.45008,-0.43419 z m 17.52194,-34.04386 c 0.29667,-0.59483 0.69438,-1.5047 0.88378,-2.02195 0.96765,-2.64261 2.48738,-3.60701 3.67713,-2.33341 l 0.5436,0.58194 0.2089,-0.53492 c 1.0378,-2.65662 4.0182,-11.88983 4.1846,-12.96374 0.079,-0.51056 0.035,-0.88212 -0.1318,-1.11024 -0.3801,-0.51982 -0.2651,-0.6478 -2.9543,3.28828 -0.9576,1.40169 -1.7515,2.92804 -3.42775,6.59039 -2.70391,5.90754 -3.37097,7.23829 -4.03829,8.05612 l -0.67077,0.82206 0.45438,0.3493 c 0.24991,0.19212 0.51665,0.35119 0.59275,0.35349 0.0761,0.002 0.38109,-0.4825 0.67777,-1.07732 z m -1.68765,-0.89354 c 1.12481,-1.28109 2.4181,-4.39217 3.31049,-7.96359 1.59635,-6.38868 1.66112,-6.80117 1.06811,-6.80117 -0.53554,0 -1.31658,0.83492 -1.82989,1.95613 -0.25517,0.55736 -1.00437,2.53283 -1.66489,4.38992 -1.18368,3.32797 -2.12526,5.43172 -3.07012,6.8595 -0.28911,0.43688 -0.41342,0.79641 -0.31076,0.89884 0.31637,0.31567 1.67457,1.30828 1.79737,1.31357 0.0669,0.003 0.38173,-0.29106 0.69969,-0.6532 z m -33.96774,6.58284 c -1.21938,-0.33729 -2.2304,-0.96396 -3.03665,-1.88222 l -0.61864,-0.70459 -1.38533,0.23697 c -2.62996,0.44987 -4.25595,-0.0382 -4.3816,-1.31512 -0.0853,-0.86733 0.0777,-1.38647 0.64849,-2.06481 0.27153,-0.32269 0.45638,-0.624 0.4108,-0.66959 -0.0456,-0.0456 -0.37296,3.1e-4 -0.72749,0.10199 -1.08256,0.31048 -3.07907,0.21752 -4.35788,-0.2029 -1.72602,-0.56744 -3.65078,-1.93136 -4.65911,-3.30153 -0.72537,-0.98566 -0.95398,-1.16837 -1.59875,-1.27778 -2.15034,-0.36488 -3.56111,-1.39542 -4.02364,-2.93918 -0.21594,-0.72075 -0.20358,-0.85087 0.1226,-1.2909 0.69664,-0.9398 1.89818,-1.41185 4.65339,-1.82817 l 0.94044,-0.1421 -1.59875,-0.14341 c -2.88115,-0.25845 -3.655,-0.59317 -5.77213,-2.49665 -2.64934,-2.38199 -2.61285,-5.74564 0.0891,-8.21509 0.55612,-0.50827 1.09192,-0.92412 1.19068,-0.92412 0.0987,0 0.0755,-0.19043 -0.0516,-0.4232 -0.35873,-0.65685 -0.52917,-2.57795 -0.31711,-3.57434 0.40962,-1.92471 3.26493,-4.9024 6.03512,-6.29379 l 0.92677,-0.46549 -0.41338,-0.44002 c -1.27035,-1.35223 -0.37406,-4.4461 1.96594,-6.7861 2.4931,-2.49309 6.6655,-4.63848 11.95784,-6.14855 3.55423,-1.01413 4.38089,-1.14426 7.24136,-1.13987 3.38164,0.005 5.88284,0.52119 8.23526,1.69892 1.88238,0.94241 3.33214,3.07996 3.33214,4.91297 v 0.92494 l 1.36363,0.10608 c 1.13596,0.0884 1.72479,0.2771 3.52664,1.13029 1.18966,0.56332 2.79118,1.16828 3.55893,1.34437 2.93536,0.67324 3.87558,1.60044 3.80022,3.74762 -0.0365,1.03823 -0.1935,1.39476 -1.10924,2.51797 -0.90315,1.10777 -2.50981,1.85253 -4.74521,2.19962 l -1.78683,0.27743 -1.1915,1.27768 c -1.34706,1.44447 -1.72386,2.1541 -1.72386,3.24655 0,0.96988 0.0463,0.97008 3.45741,0.0145 5.41226,-1.51612 7.38325,-1.39125 9.0356,0.57246 1.07347,1.27576 0.2489,2.37134 -2.24223,2.97916 -1.97929,0.48293 -4.70391,2.42923 -8.47158,6.05157 -1.44408,1.38837 -2.99413,2.83525 -3.44456,3.21528 l -0.81898,0.69096 0.72493,0.1194 c 2.96839,0.4889 4.14629,0.97212 5.30233,2.17522 1.01833,1.05977 1.30699,1.89638 0.87946,2.54888 -0.36549,0.55781 -1.34003,1.01162 -2.17242,1.01162 -1.27513,0 -3.60959,2.09063 -6.20047,5.55286 -2.0987,2.80451 -2.7912,3.31022 -5.06731,3.70054 -1.16179,0.19922 -1.46853,0.33618 -2.05183,0.91611 -1.24961,1.2424 -3.70639,1.87459 -5.43106,1.39753 z m 3.54643,-0.97118 c 0.9214,-0.50149 2.42137,-2.15316 2.42137,-2.66625 0,-0.12717 -0.29877,-0.21802 -0.71698,-0.21802 -0.57855,0 -0.79753,0.10895 -1.13416,0.56426 -0.47183,0.63819 -0.91384,0.78571 -0.60062,0.20046 0.32333,-0.60415 0.22599,-0.76472 -0.4636,-0.76472 -0.50973,0 -0.65831,0.0768 -0.65831,0.34023 0,0.18712 -0.12426,0.50452 -0.27615,0.70532 -0.25878,0.34215 -0.27653,0.32075 -0.28213,-0.34022 -0.006,-0.69649 -0.0154,-0.70533 -0.75833,-0.70533 -0.82802,0 -0.89055,0.12761 -0.46539,0.94978 0.39509,0.76402 0.0453,0.69663 -0.62877,-0.12116 -0.32416,-0.39326 -0.68775,-0.64897 -0.86918,-0.61129 -0.2682,0.0557 -0.24476,0.15553 0.16741,0.71263 0.75056,1.01444 0.58941,1.32285 -0.25854,0.49484 -0.59994,-0.58582 -0.82847,-0.69776 -1.22257,-0.59884 -0.26658,0.0669 -0.48471,0.23039 -0.48471,0.3633 0,0.22351 0.7761,1.03289 1.54995,1.61639 1.19202,0.89885 3.11436,0.93113 4.68071,0.0786 z m 4.42542,-2.03602 c 1.44498,-0.42911 2.3739,-1.22846 4.10546,-3.5328 0.87275,-1.16143 2.21847,-2.7888 2.9905,-3.61639 1.25682,-1.34725 1.36424,-1.51942 1.02659,-1.64544 -0.68745,-0.25659 -1.2855,0.074 -2.13791,1.18178 -0.79848,1.03767 -2.53814,2.68538 -2.68266,2.54086 -0.0373,-0.0373 0.49145,-0.77382 1.17495,-1.63676 1.1049,-1.39493 1.19876,-1.57584 0.8462,-1.63094 -0.2859,-0.0447 -0.70546,0.26775 -1.50379,1.11983 -1.22659,1.30918 -1.68781,1.38604 -0.7584,0.12638 l 0.5962,-0.80806 -0.52399,-0.0638 c -0.41395,-0.0504 -0.65669,0.0878 -1.15593,0.65831 -0.43622,0.49846 -0.60431,0.60561 -0.54271,0.34594 0.0491,-0.2069 0.12072,-0.50313 0.1592,-0.6583 0.052,-0.2096 -0.12548,-0.29651 -0.69019,-0.33805 -0.7085,-0.0521 -0.79513,-0.003 -1.27531,0.73094 -0.28335,0.43279 -0.49145,0.79902 -0.46244,0.81385 0.029,0.0148 0.36029,0.16652 0.73617,0.33706 1.02573,0.46541 2.06312,1.46136 2.46245,2.36411 0.6676,1.50919 0.059,2.08552 -2.90734,2.75306 -0.31074,0.0699 -0.62859,0.33757 -0.80421,0.67717 -0.27164,0.5253 -0.26799,0.56153 0.0565,0.56153 0.19078,0 0.77158,-0.12612 1.29067,-0.28027 z m -10.9382,-0.45638 c 0.72413,-0.19874 1.90725,-0.53749 2.62914,-0.75278 1.11904,-0.33373 1.81416,-0.39144 4.71508,-0.39144 2.57817,0 3.65004,-0.0733 4.42413,-0.30262 1.66358,-0.49279 1.75841,-1.1346 0.35419,-2.39711 -1.22284,-1.09944 -2.66126,-1.64194 -4.59905,-1.73453 -1.08526,-0.0519 -1.33164,-0.0267 -0.88387,0.0904 1.09183,0.28545 0.89257,0.39391 -0.73055,0.39768 -2.88766,0.007 -7.75925,0.84971 -9.19211,1.59067 -0.89422,0.46243 -1.87865,1.40901 -2.27664,2.18913 -0.44883,0.87978 -0.45333,1.07257 -0.0359,1.53928 0.30116,0.33675 0.49707,0.35804 2.30407,0.25034 1.08621,-0.0647 2.5674,-0.2803 3.29154,-0.47904 z m -3.76176,-0.4978 c 0.10345,-0.0419 0.99216,-0.28748 1.97492,-0.54568 0.98276,-0.2582 2.24964,-0.59809 2.81528,-0.75532 1.16651,-0.32423 2.93514,-0.37985 3.10947,-0.0978 0.0699,0.11303 -0.1745,0.18809 -0.6123,0.18809 -0.40069,0 -1.78107,0.29534 -3.06751,0.65631 -1.45705,0.40885 -2.72905,0.65147 -3.37347,0.64346 -0.56896,-0.007 -0.94984,-0.0472 -0.84639,-0.0891 z m 2.03781,-1.53644 c 0.15939,-0.25792 2.17947,-0.66349 2.85671,-0.57354 l 0.56002,0.0744 -0.56426,0.25245 c -0.69547,0.31115 -3.01636,0.51188 -2.85247,0.24671 z m -2.6491,-1.9285 c 0.59483,-0.23714 1.07696,-0.48291 1.07139,-0.54614 -0.006,-0.0632 -0.49351,-0.35095 -1.08433,-0.63937 -0.59081,-0.28843 -1.57911,-0.90206 -2.19621,-1.36364 -1.08439,-0.81109 -1.59962,-1.02598 -1.59962,-0.66715 0,0.0946 0.44435,0.49143 0.98746,0.88177 0.5431,0.39033 1.02273,0.7361 1.06583,0.76837 0.0431,0.0323 0.029,0.10806 -0.0314,0.16842 -0.17119,0.17119 -1.66142,-0.56041 -2.47096,-1.21306 -0.40216,-0.32422 -0.81456,-0.58948 -0.91645,-0.58948 -0.3208,0 0.26841,0.56769 1.50535,1.45034 0.65675,0.46865 1.15329,0.89288 1.10343,0.94274 -0.19252,0.19252 -2.13713,-0.88404 -3.09249,-1.71204 -1.71897,-1.48981 -1.75703,-0.99652 -0.0448,0.58132 0.54768,0.50471 0.75039,0.79477 0.55866,0.79938 -0.44413,0.0107 -1.73361,-0.98217 -2.45442,-1.88977 -0.47889,-0.60298 -1.08032,-1.01029 -2.50458,-1.69617 -1.0309,-0.49645 -1.91102,-0.86597 -1.95584,-0.82115 -0.30968,0.30967 3.01521,4.00832 4.25799,4.73664 1.98387,1.16263 2.8154,1.38799 4.83866,1.31138 1.39449,-0.0528 2.16054,-0.18272 2.96238,-0.50239 z m 6.91222,-1.61737 c 2.3153,-0.16659 2.47499,-0.26017 1.52118,-0.89137 -0.41784,-0.27651 -0.89159,-0.70404 -1.05279,-0.95007 -0.16218,-0.24752 -0.9652,-0.75455 -1.79777,-1.13513 -1.68157,-0.76867 -2.92685,-1.7819 -3.30752,-2.69121 -0.44195,-1.05569 -0.32142,-2.46745 0.30372,-3.55741 0.56475,-0.98465 1.74476,-2.13564 2.7049,-2.63838 0.75624,-0.39598 0.83102,-0.18078 0.11902,0.34247 -0.62806,0.46154 -2.0644,2.15869 -2.0644,2.43925 0,0.31103 1.38912,0.16197 2.21457,-0.23762 0.92588,-0.44822 1.71962,-1.42104 2.10012,-2.57397 0.31455,-0.9531 0.0967,-1.5778 -0.89889,-2.57735 -1.23609,-1.24105 -2.33059,-1.62616 -8.02395,-2.82328 -6.46597,-1.35958 -7.21332,-1.47093 -9.96865,-1.48522 -2.41568,-0.0125 -2.70315,0.023 -3.47962,0.42949 -1.68716,0.88333 -2.8691,2.375 -3.11871,3.93594 -0.15242,0.95322 0.32782,2.64895 0.9028,3.18776 0.92824,0.86984 4.66105,2.26799 4.66105,1.74581 0,-0.0892 -0.76011,-0.5971 -1.68913,-1.12874 -0.92902,-0.53164 -1.73902,-1.04734 -1.79999,-1.146 -0.13002,-0.21038 2.05833,0.58291 3.34806,1.2137 0.49138,0.24032 0.89341,0.40052 0.89341,0.356 0,-0.0445 -0.77374,-0.96472 -1.71944,-2.0449 -0.94569,-1.08018 -1.66931,-2.01407 -1.60806,-2.07532 0.13155,-0.13156 7.95655,7.67343 10.36701,10.3405 2.32883,2.57675 4.25046,3.9348 5.98722,4.23129 0.42117,0.0719 1.40775,0.0703 2.1924,-0.004 0.78465,-0.0738 2.23071,-0.19206 3.21346,-0.26277 z m -11.5921,-5.58052 c -2.42207,-2.75783 -4.08972,-6.34053 -4.32919,-9.30062 -0.0653,-0.80666 -0.0753,-1.42433 -0.0223,-1.37261 0.053,0.0517 0.32086,0.98275 0.59528,2.06896 0.5206,2.06063 1.61933,4.49153 3.30801,7.31883 0.96306,1.61242 1.11297,2.04235 0.44821,1.28544 z m 5.40133,-1.26885 c -0.30424,-1.03893 -0.15785,-3.20439 0.29479,-4.36061 0.3789,-0.96787 1.32581,-2.41054 1.58217,-2.41054 0.10022,0 -0.0233,0.40565 -0.27457,0.90144 -0.69935,1.38009 -1.08872,2.93935 -1.22793,4.91732 l -0.12661,1.79879 z m -2.52348,-0.42723 c -0.49748,-1.63478 -0.73742,-3.32898 -0.75199,-5.30944 -0.0225,-3.06911 0.31942,-2.98749 0.59237,0.14138 0.12858,1.47397 0.34477,3.42374 0.48042,4.33285 0.13564,0.9091 0.18629,1.69021 0.11255,1.73578 -0.0737,0.0456 -0.26875,-0.35968 -0.43335,-0.90057 z m -1.62342,0.0252 c -0.844,-1.37128 -1.41077,-4.19634 -1.28338,-6.39702 0.12115,-2.09271 0.52363,-2.42486 0.52464,-0.43297 10e-4,1.74362 0.40228,4.36902 0.93167,6.09372 0.20476,0.66707 0.3372,1.24793 0.29432,1.29081 -0.0429,0.0429 -0.25313,-0.20666 -0.46725,-0.55454 z m 2.99319,-0.59953 c -0.30649,-1.36954 -0.15335,-4.70545 0.2597,-5.65745 0.17522,-0.40382 0.35682,-0.69595 0.40358,-0.64919 0.0468,0.0468 -0.006,0.67127 -0.11781,1.3878 -0.11155,0.71653 -0.16824,2.34174 -0.12596,3.61157 0.0423,1.26984 0.0156,2.30879 -0.0593,2.30879 -0.0749,0 -0.23698,-0.45068 -0.36025,-1.00152 z m -7.35319,-0.0771 c -1.65819,-1.77765 -3.30196,-4.41814 -4.02349,-6.46316 -0.37723,-1.06919 -0.20966,-1.14802 0.29978,-0.14103 0.892,1.76317 3.6062,6.03506 4.37299,6.88268 0.2102,0.23235 0.33822,0.46642 0.28449,0.52014 -0.0537,0.0537 -0.47392,-0.30565 -0.93377,-0.79863 z m 2.60077,-0.73777 c -0.64298,-1.24966 -1.06923,-3.12478 -1.06923,-4.70356 0,-1.01213 0.0684,-1.54778 0.18808,-1.47379 0.10345,0.0639 0.18883,0.34401 0.18974,0.62239 0.001,0.27838 0.24996,1.73121 0.55346,3.22853 0.3035,1.49732 0.52061,2.75362 0.48245,2.79178 -0.0382,0.0382 -0.19319,-0.17125 -0.3445,-0.46535 z m 18.05236,7.74553 c 0.21809,-0.15276 0.45369,-0.50546 0.52354,-0.78377 0.15255,-0.60782 -0.25769,-3.07642 -0.51125,-3.07642 -0.10263,0 -0.12784,0.30071 -0.0591,0.70533 l 0.11977,0.70533 -0.47502,-0.52773 c -0.26126,-0.29025 -0.47501,-0.65508 -0.47501,-0.81073 0,-0.212 -0.17695,-0.26835 -0.70534,-0.22462 -0.67324,0.0557 -0.70308,0.0868 -0.65588,0.68226 0.058,0.73129 -0.19487,0.65629 -0.63105,-0.1872 -0.20927,-0.40469 -0.35566,-0.51509 -0.49639,-0.37436 -0.14073,0.14073 -0.0767,0.4853 0.21718,1.1684 0.22922,0.53285 0.37479,1.01079 0.32349,1.06209 -0.11626,0.11626 -1.19569,-1.35674 -1.34961,-1.84168 -0.1169,-0.36831 -0.84033,-0.50861 -0.84033,-0.16296 0,0.10677 0.12695,0.49799 0.28213,0.86937 0.33286,0.79666 0.33545,0.81738 0.10197,0.81738 -0.0991,0 -0.40337,-0.38088 -0.67618,-0.8464 -0.54844,-0.93584 -0.9372,-1.13827 -0.63211,-0.32915 0.37175,0.98595 1.11643,2.09333 1.67531,2.49128 0.54122,0.38539 2.40883,0.89544 3.39198,0.92637 0.26146,0.008 0.65382,-0.11004 0.87192,-0.26279 z m 1.3249,-1.27179 c -0.045,-0.23396 -0.0835,-0.0868 -0.0856,0.32696 -0.002,0.41379 0.0347,0.60522 0.0818,0.42539 0.0471,-0.17983 0.0488,-0.51838 0.004,-0.75235 z m -18.37753,-0.22398 c 0,-0.1643 -2.32849,-2.29482 -3.35688,-3.07148 -1.49676,-1.13038 -3.14907,-1.92617 -3.99932,-1.92617 -1.87245,0 -3.82649,0.79005 -4.04577,1.63578 -0.28518,1.09986 1.18023,2.90654 2.51483,3.10051 0.69953,0.10167 0.75735,-0.0728 0.34846,-1.05137 -0.20341,-0.48683 -0.42661,-0.67239 -0.98745,-0.82091 l -0.72465,-0.1919 1.05206,-0.0195 c 1.20426,-0.0222 2.47038,0.36987 4.49653,1.39259 0.77586,0.39162 1.62226,0.77701 1.88088,0.85641 0.49952,0.15336 2.82131,0.23235 2.82131,0.096 z m -4.60815,-1.68742 c -1.77644,-0.58651 -3.62778,-1.45155 -3.33906,-1.56018 0.42434,-0.15966 5.1259,1.58843 5.1259,1.90587 0,0.18487 -0.43446,0.10081 -1.78684,-0.34569 z m 29.62379,0.98891 c 2.64501,-0.57332 2.779,-0.58405 4.44161,-0.35592 1.9604,0.26899 2.51765,0.12235 2.51765,-0.66251 0,-0.62099 -1.23661,-1.94648 -2.41362,-2.58709 -1.78054,-0.9691 -5.267,-1.09761 -7.88022,-0.29047 -0.78873,0.24362 -1.24371,0.49897 -1.38802,0.77901 -0.41058,0.79678 -0.99661,1.27078 -1.71266,1.38529 -0.88918,0.14218 -1.01758,0.32876 -0.63161,0.91783 0.4444,0.67824 1.03522,1.00033 2.18435,1.19082 1.64868,0.2733 2.01181,0.24527 4.88252,-0.37696 z m -4.82974,-0.20964 c -0.95832,-0.37465 -0.87215,-0.43743 0.49436,-0.36022 0.72177,0.0408 2.14234,-0.0724 3.23441,-0.25762 2.25386,-0.38235 3.87511,-0.42772 4.40023,-0.12315 0.30557,0.17724 0.17584,0.21525 -0.76006,0.2227 -0.62069,0.005 -1.721,0.13734 -2.44514,0.29422 -1.8617,0.40331 -4.19385,0.50944 -4.9238,0.22407 z m 1.09642,-0.87047 c -0.29352,-0.186 0.29016,-0.31655 2.30465,-0.51546 0.87438,-0.0863 1.25943,-0.0649 1.17874,0.0657 -0.28511,0.46132 -2.92691,0.80244 -3.48339,0.44979 z m -10.76022,0.14636 c -0.15975,-0.29852 -0.26548,-0.34302 -0.42824,-0.18026 -0.16275,0.16276 -0.14685,0.25991 0.0644,0.39349 0.45615,0.2884 0.5902,0.20982 0.36379,-0.21323 z m -0.0832,-0.92025 c 1.00642,-0.2574 2.12943,-0.3809 3.55672,-0.39113 3.50003,-0.0251 5.18558,-0.22054 5.48978,-0.63657 0.47079,-0.64386 0.31152,-1.1554 -0.61319,-1.96937 -1.16443,-1.02497 -2.4853,-1.41058 -4.38008,-1.2787 -1.59681,0.11114 -3.51718,0.68864 -4.56676,1.37335 -1.11647,0.72834 -1.82061,2.46797 -1.23568,3.05289 0.27203,0.27203 0.009,0.29469 1.74921,-0.15047 z m 0.1889,-1.69412 c 0.33331,-0.53931 2.38859,-1.07868 2.89983,-0.76101 0.19462,0.12094 0.041,0.225 -0.56426,0.38226 -0.45744,0.11884 -1.12793,0.29483 -1.49,0.39107 -0.84068,0.22348 -0.98995,0.22131 -0.84557,-0.0123 z m -0.47103,-0.95328 c 0.66628,-0.46405 1.98677,-0.93542 2.93155,-1.04646 1.5559,-0.18287 1.23562,0.17616 -0.66456,0.74497 -1.77306,0.53076 -2.79044,0.66606 -2.26699,0.30149 z m -2.35891,1.28377 c 0.15364,-0.33621 0.41902,-0.80173 0.58972,-1.03449 0.29857,-0.4071 0.2934,-0.42329 -0.13577,-0.42576 -0.24537,-0.002 -0.63657,-0.0536 -0.86933,-0.11598 -0.3895,-0.10438 -0.4232,-0.0508 -0.4232,0.67324 0,0.70741 0.25273,1.51427 0.47431,1.51427 0.0467,0 0.21062,-0.27508 0.36427,-0.61128 z m 14.89575,-1.61485 c 0.84355,-0.1983 1.70442,-0.48011 1.91304,-0.62623 0.20863,-0.14613 1.67676,-1.50496 3.26252,-3.01963 1.58575,-1.51467 3.28523,-3.05992 3.7766,-3.43391 0.49138,-0.37399 0.89342,-0.70389 0.89342,-0.73311 0,-0.0292 -0.50758,0.0286 -1.12795,0.1285 -0.87336,0.14066 -1.47833,0.11211 -2.68025,-0.12647 -1.96313,-0.38969 -3.88869,-0.37793 -6.15061,0.0375 l -1.77701,0.32639 -0.23088,1.25099 c -0.27215,1.47456 -0.76769,2.6608 -1.58969,3.80541 l -0.59595,0.82983 1.01035,1.03281 c 0.70272,0.71835 1.12487,1.01083 1.38652,0.96062 0.20689,-0.0397 1.06635,-0.23443 1.90989,-0.43273 z m 3.02112,-2.89926 c 1.05425,-1.06034 2.08719,-2.1395 2.29541,-2.39812 0.28195,-0.35016 0.38021,-0.39288 0.38487,-0.16731 0.008,0.38811 -0.77729,1.56416 -1.65784,2.48272 -0.67596,0.70514 -2.48452,2.01061 -2.78544,2.01061 -0.0846,0 0.70874,-0.86755 1.763,-1.9279 z m -4.81252,1.31662 c 0.49571,-0.92918 2.67589,-4.09091 2.82089,-4.09091 0.39102,0 -0.70942,2.09755 -1.80789,3.44604 -0.88088,1.08137 -1.43358,1.43322 -1.013,0.64487 z m 2.86355,-1.22257 c 0.88792,-0.90517 1.88779,-2.01844 2.22195,-2.47392 0.75076,-1.02336 0.95336,-0.67242 0.23918,0.41432 -0.89701,1.36496 -1.79212,2.36894 -2.718,3.04859 -1.52902,1.12241 -1.42629,0.72686 0.25687,-0.98899 z m -3.90893,0.56426 c 0.18643,-0.28448 0.70258,-1.19436 1.14702,-2.02194 0.68781,-1.28078 0.80791,-1.42073 0.80707,-0.94044 -0.001,0.75027 -0.55504,1.93347 -1.30408,2.78659 -0.71114,0.80994 -1.14192,0.92645 -0.65001,0.17579 z m -1.71512,-1.97492 c 0.84561,-3.98592 2.35438,-6.16519 5.59764,-8.08525 1.63578,-0.9684 2.02869,-1.43703 2.02869,-2.41967 0,-0.68362 -2.56719,-2.01591 -5.17896,-2.68772 -3.79861,-0.97711 -9.07452,-0.75017 -13.01624,0.55988 -1.81617,0.6036 -2.83639,1.1857 -3.59757,2.05264 -0.51906,0.59118 -1.15393,1.77569 -1.15393,2.15297 0,0.15508 2.28782,0.60642 2.41735,0.47688 0.0485,-0.0485 -0.0659,-0.25849 -0.25433,-0.46666 -0.64521,-0.71294 -0.0967,-0.6254 0.79834,0.12742 1.00922,0.84886 1.72185,1.27089 1.87959,1.11315 0.0586,-0.0586 -0.20134,-0.54631 -0.57762,-1.08383 -0.37628,-0.53751 -0.6418,-1.01964 -0.59004,-1.0714 0.14307,-0.14306 1.3385,1.06108 2.3085,2.32532 0.85445,1.11364 1.188,1.4509 1.31216,1.32675 0.0349,-0.0349 -0.28004,-1.07283 -0.69988,-2.30648 -1.395,-4.0991 -0.74184,-3.53911 0.85684,0.7346 0.52501,1.40351 1.1033,2.59048 1.49491,3.06839 0.35127,0.42868 0.77383,1.1029 0.93902,1.49827 0.38608,0.92401 0.39123,2.77814 0.0107,3.86029 -0.16368,0.46551 -0.29903,0.88871 -0.30077,0.94044 -0.002,0.0517 0.77995,0.0687 1.73707,0.0376 0.95713,-0.031 2.07879,0.0239 2.49259,0.12217 0.41379,0.0982 0.80069,0.18706 0.85977,0.19746 0.0591,0.0104 0.34535,-1.10259 0.63615,-2.47327 z m -3.65893,-6.28568 c 0,-2.16659 0.81526,-5.70489 1.31447,-5.70489 0.11445,0 0.11631,0.16992 0.005,0.46247 -0.0967,0.25436 -0.35966,1.71439 -0.58434,3.24451 -0.4442,3.0252 -0.73522,3.81601 -0.73522,1.99791 z m -2.13745,-0.18255 c -0.19096,-1.39318 -0.1218,-5.35554 0.0816,-4.67594 0.26274,0.87784 0.45562,5.54859 0.22913,5.54859 -0.10513,0 -0.24496,-0.39269 -0.31075,-0.87265 z m 3.65766,0.1203 c -0.0169,-1.11596 0.5326,-3.03843 1.21948,-4.26667 0.91932,-1.6439 1.47427,-1.88154 0.67015,-0.28697 -0.19356,0.38381 -0.62383,1.54423 -0.95618,2.57872 -0.84064,2.61663 -0.92118,2.78702 -0.93345,1.97492 z m -5.04656,-0.28214 c -0.45971,-1.58349 -0.60199,-2.48941 -0.59081,-3.76175 0.009,-1.07963 0.0418,-1.21516 0.17964,-0.75294 0.3074,1.03099 0.7721,4.16182 0.70032,4.71845 -0.0691,0.53551 -0.0759,0.53065 -0.28915,-0.20376 z m 2.4786,0.37618 c -0.475,-1.02205 0.21142,-6.26523 0.74898,-5.721 0.0426,0.0431 0.002,0.50157 -0.091,1.01881 -0.0927,0.51724 -0.23924,1.87147 -0.32578,3.0094 -0.11486,1.5105 -0.20451,1.96742 -0.33216,1.69279 z m 3.97102,-0.51724 c 0.38713,-1.79489 1.6014,-3.82094 2.78371,-4.64468 l 0.40587,-0.28278 -0.36691,0.55934 c -0.95986,1.4633 -1.89826,3.09567 -2.29486,3.99194 -0.49511,1.11892 -0.72305,1.28138 -0.52781,0.37618 z m 1.21465,0.50078 c 0,-0.33766 2.62129,-3.23964 3.62069,-4.00839 0.62516,-0.48087 0.32572,0.0914 -0.68216,1.30371 -0.9726,1.16986 -2.93853,2.97935 -2.93853,2.70468 z m 0.84274,5.155 c 0.33304,-1.41271 0.34159,-1.52752 0.10281,-1.37994 -0.24581,0.15192 -0.94746,2.45535 -0.93801,3.07939 l 0.008,0.49743 0.27371,-0.50409 c 0.15054,-0.27724 0.39982,-1.039 0.55396,-1.69279 z m -34.19697,-0.68838 c 0,-1.39454 0.53977,-2.54977 1.6843,-3.60476 1.93269,-1.78149 4.83906,-2.39783 8.85067,-1.87692 3.51538,0.45647 12.1676,2.53207 13.71894,3.29107 0.91606,0.44819 2.34953,1.77165 2.55877,2.3624 0.0523,0.14758 0.14137,0.22601 0.198,0.17429 0.28042,-0.25615 -0.51349,-1.6746 -1.48909,-2.66049 -1.32093,-1.33487 -3.85993,-2.679 -5.80373,-3.07246 -4.93709,-0.99936 -11.7287,-1.49886 -14.29748,-1.05152 -3.96722,0.69086 -6.72668,4.0437 -5.71546,6.94448 0.11357,0.32579 0.22642,0.59234 0.25078,0.59234 0.0244,0 0.0443,-0.4943 0.0443,-1.09843 z m 48.22121,-2.94831 c 0.41366,-0.14595 1.68829,-0.73401 2.8325,-1.3068 1.14421,-0.5728 2.2216,-1.04176 2.39419,-1.04215 0.47025,-0.001 1.53638,-0.7072 1.53638,-1.01762 0,-0.55724 -1.21171,-1.56918 -2.24717,-1.87668 -1.54651,-0.45926 -2.35635,-0.37723 -5.38641,0.54565 -1.66035,0.50569 -3.19379,0.85756 -3.79797,0.87149 -0.68138,0.0157 -1.04663,0.11021 -1.11504,0.28851 -0.13902,0.36227 -0.001,0.46302 0.84574,0.61788 1.35611,0.24799 3.59045,-0.0787 5.55753,-0.81245 1.06394,-0.39688 1.81806,-0.59327 1.77433,-0.46204 -0.11331,0.33993 -2.34427,1.4262 -3.38947,1.65036 -1.13635,0.2437 -3.98074,0.25493 -4.80353,0.019 -0.52783,-0.15139 -0.74289,-0.0986 -1.50346,0.369 -0.83816,0.51531 -1.73,0.80003 -3.23861,1.03396 -0.74829,0.11602 -1.78036,0.92497 -1.58448,1.24191 0.0908,0.14699 0.84606,0.17705 2.50306,0.0996 1.30512,-0.061 3.34631,-0.0377 4.53597,0.0517 2.49115,0.18717 4.01782,0.10575 5.08644,-0.27128 z m -6.81431,-3.7477 c 0.81875,-0.93249 0.9126,-1.69426 0.41207,-3.34444 -0.59168,-1.95066 -1.51075,-3.09932 -3.01022,-3.76219 -0.25862,-0.11432 -1.90909,-0.27163 -3.66771,-0.34957 -2.17056,-0.0962 -3.74116,-0.27033 -4.89029,-0.54222 -0.99483,-0.23538 -2.66216,-0.44355 -4.04388,-0.5049 -2.29684,-0.10198 -2.38769,-0.0907 -3.93805,0.4874 -2.69754,1.00592 -4.02321,1.80904 -5.42911,3.28909 -1.4713,1.5489 -2.10618,2.70477 -2.10618,3.83457 0,0.76868 0.0153,0.78767 0.65831,0.81523 0.36207,0.0155 0.75705,0.0367 0.87774,0.047 0.12069,0.0103 0.34309,-0.36207 0.49422,-0.82759 0.47111,-1.45111 1.01863,-1.98127 3.10141,-3.00311 4.0897,-2.00644 8.60138,-2.70421 12.93565,-2.00061 2.21732,0.35996 6.30703,1.54936 7.29457,2.12148 1.49987,0.86891 1.74977,2.60095 0.58449,4.05099 -0.75787,0.94307 -0.14327,0.68002 0.72698,-0.31115 z m -25.43775,-1.60992 c 0.42381,-1.57437 2.66579,-3.3174 4.93189,-3.8343 1.4443,-0.32944 1.7356,-0.25224 0.67955,0.18011 -2.8203,1.15462 -4.20668,2.08332 -5.31469,3.56015 -0.40191,0.53571 -0.41693,0.54047 -0.29675,0.094 z m -10.35787,1.11638 c 0.72414,-0.10964 1.60399,-0.24254 1.95522,-0.29533 l 0.6386,-0.096 -0.6386,-0.39895 c -0.98089,-0.61278 -0.21829,-0.64113 0.97538,-0.0363 0.89013,0.45107 3.13735,0.94627 3.34623,0.73738 0.0462,-0.0462 -0.39498,-0.58619 -0.98042,-1.19997 -0.9477,-0.99356 -1.27903,-1.52005 -0.95661,-1.52005 0.0593,0 0.81485,0.67711 1.679,1.5047 1.09112,1.04494 1.71217,1.5047 2.03259,1.5047 0.43104,0 0.46726,-0.0773 0.5508,-1.17555 0.0689,-0.90631 0.0161,-1.28324 -0.23076,-1.64576 -0.36722,-0.53933 -0.75682,-1.60762 -0.74762,-2.05002 0.0101,-0.48856 0.70677,0.46448 0.96187,1.31594 0.12097,0.40374 0.27293,0.73408 0.3377,0.73408 0.0648,0 0.27989,-0.27508 0.47804,-0.61129 0.49736,-0.84389 1.8375,-2.24967 2.74249,-2.87683 0.41488,-0.28751 0.68764,-0.58461 0.60614,-0.66023 -0.29964,-0.27804 -2.18665,-0.55385 -3.78933,-0.55385 -3.06375,0 -6.42133,1.19551 -9.17318,3.26623 -1.42778,1.07438 -2.13085,2.11486 -2.13554,3.16039 -0.004,1.01326 0.16478,1.33518 0.63413,1.20564 0.21849,-0.0603 0.98973,-0.19935 1.71387,-0.30899 z m 7.49824,-0.87085 c -0.77687,-0.96671 -1.84499,-2.87876 -1.60815,-2.87876 0.43421,0 2.4004,2.96551 2.25513,3.40132 -0.0366,0.10983 -0.32775,-0.12532 -0.64698,-0.52256 z m -7.25153,-4.61878 c 3.75911,-2.44524 7.41604,-3.1605 11.88494,-2.32456 1.68133,0.3145 1.83078,0.31554 2.53107,0.0176 l 0.74423,-0.31661 -0.73785,-0.44532 c -1.99441,-1.20367 -6.78288,-1.62825 -9.70915,-0.86086 -2.26912,0.59505 -4.32416,1.72945 -5.79187,3.19716 -1.13192,1.13192 -2.27153,2.93811 -2.27153,3.60019 0,0.11575 0.47074,-0.298 1.04608,-0.91943 0.57534,-0.62144 1.61218,-1.49813 2.30408,-1.9482 z m 41.03853,-1.48691 c 1.18105,-0.97349 1.80915,-1.34243 2.11299,-1.24114 0.1162,0.0387 -0.18473,0.3548 -0.66873,0.70239 -1.0312,0.74054 -1.12148,1.02485 -0.26872,0.8462 1.75381,-0.36741 2.96238,-1.41955 2.96238,-2.57892 0,-0.58528 -0.60685,-1.37594 -1.35172,-1.76113 -0.55768,-0.28839 -4.06828,-0.74138 -7.39435,-0.95414 -1.28401,-0.0821 -1.98802,-0.0297 -2.91536,0.2172 -2.51456,0.66943 -5.0005,1.03106 -7.10886,1.03414 -2.00285,0.003 -2.15098,0.0295 -2.5862,0.46476 -0.27063,0.27062 -0.46167,0.6799 -0.46167,0.98903 0,0.5028 0.0766,0.54859 1.64576,0.98365 1.26114,0.34966 2.30514,0.48116 4.46709,0.5627 2.52657,0.0953 2.92938,0.1577 3.85579,0.59749 0.56897,0.27011 1.3826,0.83657 1.80807,1.25879 0.72419,0.71869 1.57751,2.18525 1.57751,2.71123 0,0.12828 0.74059,-0.48965 1.64577,-1.37317 0.90517,-0.88352 2.11128,-1.99011 2.68025,-2.45908 z m -3.40952,1.95734 c 0.21192,-0.39322 2.94318,-3.10897 3.56275,-3.5425 0.23945,-0.16755 0.48685,-0.25314 0.5498,-0.1902 0.14295,0.14295 -3.79411,4.06186 -4.08067,4.06186 -0.14148,0 -0.15181,-0.10662 -0.0319,-0.32916 z m -0.72841,-1.54931 c 0,-0.4605 2.51066,-2.8209 2.74802,-2.58354 0.0512,0.0512 -0.38946,0.61438 -0.97928,1.25146 -1.10844,1.19724 -1.76874,1.69453 -1.76874,1.33208 z m -1.69279,-0.31197 c 0,-0.18562 1.96467,-2.73525 2.4373,-3.16297 0.48431,-0.43829 0.48424,-0.28261 -3.1e-4,0.66718 -0.58982,1.15615 -2.43699,3.04789 -2.43699,2.49579 z m -1.50294,-0.75627 c 0.003,-0.28134 1.08277,-2.04914 1.42232,-2.32899 0.30652,-0.25263 0.32112,-0.231 0.19661,0.29137 -0.21747,0.91243 -1.62622,2.68551 -1.61893,2.03762 z m -0.75411,-0.84924 c 0,-0.33279 0.95144,-1.84803 1.38307,-2.20264 0.58592,-0.48136 0.53579,-0.0615 -0.11361,0.95165 -0.74547,1.16303 -1.26946,1.6794 -1.26946,1.25099 z m -6.55028,-0.40113 c -0.22493,-0.23942 -0.40629,-0.55682 -0.40303,-0.70533 0.007,-0.29702 0.9345,0.65929 0.9345,0.96305 0,0.26197 -0.0795,0.22344 -0.53147,-0.25772 z m 0.99265,-0.14642 c -0.16545,-0.31996 -0.26234,-0.62023 -0.21531,-0.66726 0.16004,-0.16004 0.69457,0.52202 0.69457,0.88626 0,0.5124 -0.1323,0.45194 -0.47926,-0.219 z m 3.67852,0.46983 c 0.001,-0.0936 0.27216,-0.63574 0.60266,-1.2047 0.39882,-0.68661 0.62342,-0.92804 0.6679,-0.71796 0.0368,0.17409 -0.0564,0.55517 -0.20723,0.84684 -0.29718,0.57469 -1.06621,1.35274 -1.06333,1.07582 z m -2.5132,-0.48694 c -0.1596,-0.59597 -0.1505,-0.71776 0.0536,-0.71776 0.26186,0 0.45384,0.76261 0.24464,0.9718 -0.11672,0.11672 -0.22326,0.026 -0.29825,-0.25404 z m 1.38889,-0.18514 c -0.008,-0.65239 0.17711,-1.12217 0.3899,-0.99066 0.25529,0.15778 0.20172,0.71824 -0.10777,1.12742 -0.26516,0.35057 -0.27639,0.34513 -0.28213,-0.13676 z m -11.29124,0.4005 c 0.67241,-0.0926 1.6246,-0.17123 2.11598,-0.17462 0.85546,-0.006 0.89342,-0.0289 0.89342,-0.54235 0,-1.80349 1.85155,-4.11006 3.94984,-4.9205 0.36207,-0.13985 1.05061,-0.65691 1.53009,-1.14903 0.88505,-0.90839 2.77948,-2.23439 3.19222,-2.23439 0.33499,0 -0.19781,0.53247 -1.70675,1.70569 -0.72265,0.56187 -1.31591,1.06976 -1.31834,1.12865 -0.0107,0.2594 2.82018,-0.2624 3.75732,-0.69256 0.56897,-0.26116 1.44357,-0.52397 1.94357,-0.58401 l 0.90908,-0.10918 -0.12372,-0.67727 c -0.1839,-1.00668 -0.93006,-2.16547 -1.81203,-2.81407 -1.58873,-1.16837 -3.96326,-1.22523 -9.24406,-0.22137 -4.16956,0.79262 -5.78986,1.22239 -7.47193,1.98187 -2.0388,0.92054 -3.6042,1.39537 -5.36076,1.62606 -1.81754,0.2387 -3.31949,1.00028 -4.85952,2.46407 -1.13657,1.0803 -1.41446,1.74404 -1.07415,2.56561 0.31645,0.76399 0.87311,0.99057 2.27233,0.92494 l 1.21619,-0.0571 -0.79937,-0.26489 c -0.96562,-0.31996 -1.05623,-0.63857 -0.14106,-0.49599 0.36206,0.0564 0.96432,0.15056 1.33835,0.20921 0.37403,0.0587 1.90487,0.48864 3.40186,0.95552 1.49699,0.46687 2.75401,0.81665 2.79339,0.77727 0.10823,-0.10823 -3.02846,-1.92344 -4.5242,-2.61815 -1.11081,-0.51593 -1.24042,-0.62197 -0.82921,-0.67836 1.26749,-0.17384 4.98865,1.87017 6.33283,3.47857 0.68591,0.82074 0.71855,0.83575 1.54838,0.7116 0.46623,-0.0697 1.39784,-0.20262 2.07025,-0.29527 z m -4.23197,-1.91285 c -0.72414,-0.61714 -1.99373,-1.63291 -2.82131,-2.25727 -0.82759,-0.62436 -1.53645,-1.22005 -1.57526,-1.32377 -0.13409,-0.35839 2.21041,1.02838 3.40635,2.01485 1.12158,0.92513 2.53344,2.48506 2.37653,2.62576 -0.0383,0.0344 -0.66217,-0.44244 -1.38631,-1.05957 z m 1.19632,-0.85846 c -0.74059,-0.77467 -1.98251,-2.24416 -2.77814,-3.2872 -0.13809,-0.18103 -0.17192,-0.32915 -0.0752,-0.32915 0.49113,0 4.04237,4.16633 3.77723,4.43147 -0.0407,0.0407 -0.45645,-0.32612 -0.92393,-0.81512 z m 0.86892,-0.69517 c -0.88098,-1.57533 -1.64648,-3.42548 -1.54398,-3.73168 0.0982,-0.29343 1.11171,1.48131 1.84011,3.22226 0.7706,1.84183 0.60669,2.12381 -0.29613,0.50942 z m 1.2561,0.14127 c -0.39547,-0.99056 -0.58484,-2.21957 -0.5733,-3.72076 0.0146,-1.90214 0.21961,-1.32235 0.65289,1.84664 0.31122,2.27624 0.28908,2.79753 -0.0796,1.87412 z m 1.18134,-0.14709 c -0.25143,-0.80308 -0.20029,-3.58382 0.0874,-4.74922 0.28069,-1.13721 0.58887,-1.32678 0.45867,-0.28213 -0.0484,0.38793 -0.15124,1.80564 -0.22863,3.15047 -0.11178,1.94219 -0.17706,2.32907 -0.31739,1.88088 z m 1.98634,-1.48489 c 0,-0.93892 0.6551,-2.89723 1.31949,-3.94435 0.31936,-0.50333 0.62604,-0.86974 0.68153,-0.81425 0.0555,0.0555 -0.19172,0.84818 -0.54935,1.76153 -0.35763,0.91335 -0.79504,2.105 -0.97203,2.6481 -0.17698,0.5431 -0.35731,0.98746 -0.40072,0.98746 -0.0434,0 -0.0789,-0.28732 -0.0789,-0.63849 z m 1.32595,-0.30195 c -0.004,-0.39106 1.5289,-2.96219 2.24206,-3.76175 0.53705,-0.60211 0.57672,-0.61816 0.46475,-0.18809 -0.27035,1.03843 -2.70107,4.5854 -2.70681,3.94984 z m 1.8733,-0.32915 c 0.001,-0.0776 0.25082,-0.5753 0.55522,-1.10603 0.51284,-0.89416 2.32444,-2.70275 2.70724,-2.70275 0.21375,0 -0.0485,0.36648 -1.66548,2.32713 -1.22383,1.48398 -1.60139,1.83427 -1.59698,1.48165 z m 5.82895,-1.32476 c 0,-0.18385 1.86392,-1.22231 2.58621,-1.44087 0.83902,-0.25388 0.40952,0.27491 -0.65831,0.81049 -1.32117,0.66265 -1.9279,0.86104 -1.9279,0.63038 z m 17.1118,5.33952 c 0.006,-1.08681 -1.05905,-2.04127 -2.86743,-2.56922 -0.7482,-0.21843 -2.33372,-0.80734 -3.52337,-1.30868 -3.69989,-1.55919 -5.81859,-1.87047 -7.69555,-1.13064 -1.25373,0.49417 -3.5324,1.05677 -5.37654,1.32747 -0.82759,0.12148 -1.77467,0.33298 -2.10463,0.47 -1.46526,0.60847 -3.27315,2.96766 -3.23973,4.22765 0.012,0.45297 0.0206,0.44952 0.23371,-0.094 0.43308,-1.10455 0.88056,-1.7623 1.29981,-1.91055 0.23389,-0.0827 1.82181,-0.15499 3.52871,-0.16063 3.01462,-0.01 3.15189,-0.0277 4.79623,-0.62049 2.70229,-0.97417 2.91707,-0.99775 5.2542,-0.57688 1.14467,0.20613 2.99969,0.49594 4.12227,0.64402 2.6723,0.3525 3.40476,0.56308 4.09078,1.17609 0.41021,0.36656 0.59926,0.7373 0.67894,1.33152 l 0.11044,0.82351 0.34399,-0.44734 c 0.1955,-0.25423 0.34579,-0.76438 0.34817,-1.18178 z m -20.68546,-1.61664 c 0,-0.10345 0.38699,-0.18809 0.85998,-0.18809 0.47299,0 1.76586,-0.20862 2.87304,-0.4636 2.00656,-0.46211 4.34526,-0.80797 4.16666,-0.6162 -0.0517,0.0555 -1.18974,0.40586 -2.52894,0.77848 -1.84036,0.51207 -2.79331,0.67749 -3.90282,0.67749 -0.85322,0 -1.46792,-0.0788 -1.46792,-0.18808 z m -22.82415,1.38786 c -0.69486,-0.69487 -0.68222,-1.7772 0.0339,-2.90646 1.03114,-1.62594 2.55957,-2.59529 5.1557,-3.26982 1.80883,-0.46997 3.18395,-0.90805 7.28971,-2.3223 2.30137,-0.79272 7.33293,-1.99928 9.505,-2.27928 4.36093,-0.56216 7.43718,0.45294 8.63067,2.84796 0.47093,0.94503 0.485,0.95565 0.485,0.36603 0,-2.10809 -2.17491,-3.82338 -6.01881,-4.74686 -2.52611,-0.60688 -6.82832,-0.61603 -9.40437,-0.02 -4.90005,1.13374 -8.65454,2.55104 -11.31234,4.27037 -2.85232,1.84515 -5.42747,4.85081 -5.42747,6.33482 0,0.85472 0.39055,1.69938 0.97504,2.10877 0.60845,0.42617 0.66237,0.1912 0.0879,-0.38323 z m 8.98895,-8.14161 c 0.29212,-0.47266 5.0932,-2.10398 6.85171,-2.32809 1.40505,-0.17906 0.62663,0.15918 -3.10692,1.35006 -3.82996,1.22161 -3.90791,1.24197 -3.74479,0.97803 z"
           style="fill:#1a1a1a;fill-opacity:1;stroke:#1a1a1a;stroke-width:0.533162;stroke-opacity:1"
           id="path42" /><text
           xml:space="preserve"
           style="font-style:normal;font-variant:normal;font-weight:normal;font-stretch:normal;font-size:54.873px;line-height:11.1888px;font-family:Menulis;-inkscape-font-specification:'Menulis, Normal';font-variant-ligatures:normal;font-variant-caps:normal;font-variant-numeric:normal;font-variant-east-asian:normal;letter-spacing:0.602954px;opacity:1;fill:#1a1a1a;fill-opacity:1;stroke-width:3.10801;stroke-linecap:round"
           x="395.32181"
           y="-174.75104"
           id="text43"><tspan
             id="tspan42"
             style="font-style:normal;font-variant:normal;font-weight:normal;font-stretch:normal;font-size:54.873px;font-family:Menulis;-inkscape-font-specification:'Menulis, Normal';font-variant-ligatures:normal;font-variant-caps:normal;font-variant-numeric:normal;font-variant-east-asian:normal;stroke-width:3.10801"
             x="395.32181"
             y="-174.75104">FUNGILOVERS</tspan></text></g></g></g></svg>
