<?xml version="1.0" encoding="UTF-8" standalone="no"?>
<!-- Created with Inkscape (http://www.inkscape.org/) -->

<svg
   width="154.94653"
   height="154.94629"
   viewBox="0 0 40.99627 40.996206"
   version="1.1"
   id="svg1"
   xml:space="preserve"
   xmlns="http://www.w3.org/2000/svg"
   xmlns:svg="http://www.w3.org/2000/svg"><defs
     id="defs1" /><g
     id="layer1"
     transform="translate(-318.98795,-1384.0334)"><g
       id="g66"><rect
         style="fill:#1a1a1a;fill-opacity:1;stroke-width:0.246475;stroke-linecap:round"
         id="rect121"
         width="40.996273"
         height="40.996273"
         x="318.98795"
         y="1384.0334"
         ry="20.498137" /><path
         d="m 332.73784,1415.5809 c -1.06716,-0.2979 -1.85672,-0.7726 -2.69997,-1.6234 -0.86187,-0.8696 -1.33346,-1.6686 -1.61972,-2.7441 -0.24316,-0.9136 -0.24318,-12.396 -1e-5,-13.3095 0.57079,-2.1447 2.44389,-3.9528 4.56616,-4.4079 0.83517,-0.1791 12.06379,-0.1819 12.92067,-0.01 1.55259,0.3238 3.37435,1.6958 4.06542,3.0619 0.71533,1.414 0.7104,1.3659 0.75601,7.3639 0.0276,3.6316 -0.002,5.8447 -0.0877,6.4961 -0.29658,2.2603 -1.77232,4.1429 -3.93276,5.0169 -0.64602,0.2614 -0.69145,0.2632 -7.03023,0.284 -5.03474,0.017 -6.49764,-0.012 -6.93783,-0.1346 z m 13.63335,-2.2396 c 0.86318,-0.425 1.60128,-1.165 1.99156,-1.9967 0.23979,-0.511 0.24493,-0.6537 0.24493,-6.7861 v -6.264 l -0.27193,-0.547 c -0.43436,-0.8739 -1.10813,-1.55 -1.96487,-1.9717 l -0.77458,-0.3812 h -6.15033 -6.15032 l -0.6608,0.3097 c -0.84295,0.3951 -1.65034,1.2026 -2.04546,2.0455 l -0.30974,0.6607 -0.033,5.9881 c -0.0322,5.857 -0.0276,6.0026 0.21273,6.6449 0.31493,0.8416 0.83355,1.5141 1.54434,2.0023 1.05889,0.7273 1.02409,0.724 7.61651,0.6993 l 5.97663,-0.023 z m -8.4257,-2.8166 c -1.54362,-0.3821 -3.18939,-1.726 -3.92266,-3.2031 -2.01643,-4.0617 0.91736,-8.8531 5.42083,-8.8531 3.66345,0 6.60899,3.3222 6.10505,6.8856 -0.31181,2.2048 -1.85519,4.148 -3.94143,4.9622 -0.74175,0.2895 -2.84956,0.4095 -3.66179,0.2084 z m 3.23681,-2.3115 c 0.76819,-0.3719 1.51701,-1.1421 1.89563,-1.9498 0.41812,-0.892 0.44482,-2.4533 0.0564,-3.296 -0.37833,-0.8208 -1.19959,-1.6317 -2.03945,-2.0137 -1.01688,-0.4625 -2.28801,-0.4757 -3.23111,-0.033 -0.90715,0.4253 -1.5454,1.0424 -1.96982,1.9045 -0.75312,1.5298 -0.52434,3.1586 0.61949,4.41 0.94308,1.0319 1.66948,1.3331 3.10591,1.288 0.76083,-0.023 1.11981,-0.095 1.56299,-0.3096 z m 3.57471,-8.5795 c -0.73798,-0.45 -0.77019,-1.54 -0.062,-2.097 0.35453,-0.2789 1.1434,-0.3036 1.50951,-0.047 0.30704,0.2151 0.60515,0.7544 0.60515,1.095 0,0.393 -0.32563,0.9104 -0.69221,1.1 -0.45972,0.2377 -0.91502,0.2207 -1.36047,-0.051 z"
         style="fill:#f9f9f9;fill-opacity:1;stroke-width:0.116"
         id="path1-2" /></g></g></svg>
