<?xml version="1.0" encoding="UTF-8" standalone="no"?>
<!-- Created with Inkscape (http://www.inkscape.org/) -->

<svg
   width="154.94653"
   height="154.94629"
   viewBox="0 0 40.99627 40.996206"
   version="1.1"
   id="svg1"
   xml:space="preserve"
   xmlns="http://www.w3.org/2000/svg"
   xmlns:svg="http://www.w3.org/2000/svg"><defs
     id="defs1" /><g
     id="layer1"
     transform="translate(-244.0247,-1384.0334)"><g
       id="g66"><rect
         style="fill:#1a1a1a;fill-opacity:1;stroke-width:0.246475;stroke-linecap:round"
         id="rect25"
         width="40.996273"
         height="40.996273"
         x="244.0247"
         y="1384.0334"
         ry="20.498137" /><path
         d="m 260.64271,1415.5245 c -1.09791,-0.2111 -1.83793,-0.5148 -2.7786,-1.1402 -1.02991,-0.6846 -1.72963,-1.4851 -2.29515,-2.6253 -0.94323,-1.9019 -1.02522,-3.7876 -0.24994,-5.749 0.75704,-1.9153 2.37698,-3.4443 4.29215,-4.0513 1.00642,-0.319 2.19644,-0.4623 2.83885,-0.3418 l 0.4126,0.078 v 1.9171 1.917 l -0.72437,-0.058 c -1.04667,-0.084 -1.78787,0.189 -2.51647,0.9271 -1.26684,1.2832 -1.30044,3.2096 -0.0767,4.3964 0.79454,0.7707 1.26854,0.9653 2.34988,0.9647 0.79787,0 0.98724,-0.043 1.52808,-0.3415 0.62138,-0.3433 1.13054,-0.9134 1.47385,-1.6502 0.16424,-0.3526 0.1922,-1.317 0.24256,-8.3674 l 0.0569,-7.9689 h 1.87838 1.87839 l 0.0779,0.7883 c 0.22269,2.2536 2.26693,4.3249 4.4205,4.479 l 0.8006,0.057 -0.0311,1.8913 -0.0311,1.8914 -0.85381,-0.03 c -1.42517,-0.05 -2.59847,-0.4473 -3.84215,-1.2998 l -0.48383,-0.3317 -0.004,4.0183 c -0.003,2.9609 -0.0466,4.2581 -0.16619,4.929 -0.38106,2.1391 -1.8858,4.1209 -3.82909,5.0433 -1.5201,0.7215 -2.93183,0.9341 -4.3681,0.6577 z"
         style="fill:#f9f9f9;fill-opacity:1;stroke-width:0.113841"
         id="path1-31" /></g></g></svg>
