<?xml version="1.0" encoding="UTF-8" standalone="no"?>
<!-- Created with Inkscape (http://www.inkscape.org/) -->

<svg
   width="79.887985mm"
   height="79.965462mm"
   viewBox="0 0 301.93885 302.23167"
   version="1.1"
   id="svg1"
   xml:space="preserve"
   xmlns:inkscape="http://www.inkscape.org/namespaces/inkscape"
   xmlns:sodipodi="http://sodipodi.sourceforge.net/DTD/sodipodi-0.dtd"
   xmlns="http://www.w3.org/2000/svg"
   xmlns:svg="http://www.w3.org/2000/svg"><sodipodi:namedview
     id="namedview1"
     pagecolor="#505050"
     bordercolor="#eeeeee"
     borderopacity="1"
     inkscape:showpageshadow="0"
     inkscape:pageopacity="0"
     inkscape:pagecheckerboard="0"
     inkscape:deskcolor="#505050"
     inkscape:document-units="mm" /><defs
     id="defs1" /><g
     inkscape:label="Capa 1"
     inkscape:groupmode="layer"
     id="layer1"
     transform="translate(-946.37087,-57.712935)"><path
       style="fill:#000000"
       d="m 1220.3506,984.81574 c -52.3284,-6.0817 -97.223,-37.7698 -119.637,-84.44397 -9.7369,-20.27585 -13.9021,-37.25201 -14.7214,-60 -1.0001,-27.7683 3.1146,-47.89311 14.721,-72 20.6455,-42.88138 58.8543,-72.39123 106.9624,-82.61045 13.8449,-2.94096 41.5172,-3.213 56,-0.55052 30.7995,5.66207 60.5412,21.81952 82.5244,44.83228 55.4332,58.0292 55.8254,149.33291 0.8922,207.68826 -8.1814,8.691 -19.6757,18.3428 -28.9166,24.2812 -28.0597,18.032 -64.929,26.6263 -97.825,22.8032 z m 76.325,-86.87273 c 20.3714,-2.65564 27.3129,-7.63186 30.7878,-22.07124 2.1446,-8.91131 3.4852,-33.25504 2.8362,-51.5 -1.643,-46.18607 -5.5775,-51.46397 -40.756,-54.67249 -31.0012,-2.82753 -107.3456,-1.34495 -122.868,2.38605 -10.4178,2.50405 -16.801,8.07485 -19.5048,17.02235 -4.7129,15.5955 -4.6162,75.48135 0.1457,90.26409 4.2237,13.11213 12.1001,16.95267 39.8591,19.43524 13.4695,1.20462 98.7963,0.53136 109.5,-0.864 z m -78,-63.61939 c 0,-15.19018 0.3764,-27.46851 0.8364,-27.28518 2.8446,1.13377 46.142,26.4554 46.1517,26.99092 0.01,0.36167 -6.4006,4.37772 -14.2381,8.92457 -7.8375,4.54684 -17.4,10.14339 -21.25,12.43678 -3.85,2.29339 -8.0125,4.70567 -9.25,5.36062 l -2.25,1.19081 z m 438,150.51322 c -45.1379,-5.5296 -84.2058,-29.2965 -109.1551,-66.4042 -46.4572,-69.09695 -27.6594,-163.77048 41.6551,-209.79343 36.5834,-24.29033 79.8456,-31.65807 122.2772,-20.82432 16.6641,4.25472 35.7215,13.22033 50.4728,23.74516 11.0767,7.90304 26.8855,23.85728 34.7533,35.07305 12.2998,17.53384 21.5775,39.38315 25.5786,60.23867 2.7778,14.4796 2.554,42.96356 -0.4479,57 -10.2131,47.75456 -39.6722,85.73097 -82.634,106.52537 -13.3891,6.4806 -23.1395,9.7496 -37.2648,12.4937 -12.326,2.3945 -33.9724,3.3257 -45.2352,1.946 z m 73.8515,-71.4935 c 5.2633,-4.42884 5.6735,-6.2969 16.5727,-75.47157 7.5965,-48.21315 7.8584,-50.20356 7.9687,-60.56439 0.132,-12.40106 -0.8384,-13.91653 -8.7739,-13.70263 -11.6657,0.31443 -35.3023,9.62075 -113.119,44.53769 -21.45,9.62477 -42.8437,19.13941 -47.5417,21.14364 -11.4266,4.87484 -15.4724,8.65503 -13.159,12.29519 2.0294,3.19319 30.759,13.20841 40.0652,13.96684 10.9576,0.89301 9.6068,1.62299 60.1355,-32.49599 10.175,-6.87055 20.525,-13.9403 23,-15.71056 10.3849,-7.4278 17.7642,-9.43095 17.2561,-4.68427 -0.3932,3.67379 -3.2507,6.79815 -24.486,26.77257 -30.8335,29.00277 -34.5699,32.79637 -35.3454,35.88588 -1.4082,5.611 -1.4655,5.561 39.5369,34.51339 9.6038,6.78142 19.2788,13.15535 21.5,14.16429 6.0072,2.72871 12.6894,2.46367 16.3899,-0.65008 z m 798.6485,71.4426 c -58.3159,-7.0526 -107.6665,-47.0833 -125.9633,-102.17502 -26.5778,-80.02589 16.4264,-165.7014 96.4633,-192.17997 16.5389,-5.47155 26.8154,-6.97155 47.5,-6.93333 19.8733,0.0367 30.7077,1.72578 47.912,7.46935 54.3965,18.16 94.0504,66.68537 101.661,124.4048 1.6698,12.66381 0.6267,38.41145 -2.0256,50 -14.0729,61.48754 -59.2012,105.74417 -119.8392,117.52427 -12.4697,2.4224 -33.958,3.3109 -45.7082,1.8899 z m -32.5,-123.43778 v -57.52361 l -17.25,0.27361 -17.25,0.27361 -0.2732,55.96816 c -0.1503,30.78249 -0.052,56.54499 0.2186,57.25 0.3734,0.97303 4.595,1.28184 17.5232,1.28184 h 17.0314 z m 54.2127,23.19311 0.2873,-34.33051 3.0265,-4.89306 c 8.2288,-13.3042 28.2248,-15.50505 36.9491,-4.06679 5.2309,6.85797 5.4332,8.49592 5.4805,44.37086 l 0.044,33.25 h 17.0303 17.0302 l -0.2802,-43.75 -0.2803,-43.75 -2.68,-5.71806 c -8.0636,-17.20424 -26.1353,-25.81967 -47.9898,-22.87852 -10.1254,1.36268 -17.2842,4.57037 -23.7982,10.66348 l -5.032,4.70679 v -7.13684 -7.13685 h -17 -17 v 57.5 57.5 h 16.9627 16.9626 z m -62.4228,-99.57218 c 7.9325,-4.06804 11.5999,-10.6348 11.0206,-19.73311 -0.7719,-12.12262 -9.4109,-19.83276 -21.4439,-19.13826 -8.275,0.4776 -13.6228,3.97962 -16.9326,11.08842 -3.6955,7.93718 -2.9749,15.38667 2.1579,22.30823 5.0937,6.86891 17.3056,9.52217 25.198,5.47472 z M 2091.1756,577.79687 c -69.5149,-9.52242 -122.4582,-62.40688 -131.5713,-131.4251 -1.6432,-12.44464 -0.6348,-38.34945 1.9463,-50 7.2451,-32.70251 24.2349,-61.6424 48.6534,-82.87477 65.0247,-56.5404 163.3794,-47.9029 217.4076,19.09268 21.8752,27.12548 33.2,59.46422 33.1818,94.75289 -0.013,25.29808 -4.777,45.8655 -15.6526,67.5764 -21.4617,42.84389 -61.9992,73.16378 -108.9652,81.50002 -10.9312,1.94023 -35.4206,2.69009 -45,1.37788 z m 16,-75.36677 c 12.0259,-3.21729 25.7924,-9.56682 35.9171,-16.56608 8.6398,-5.97263 22.4074,-19.92015 27.9358,-28.30073 10.5282,-15.9598 16.3452,-34.37746 17.3372,-54.89267 l 0.6142,-12.70115 4.4439,-2.79885 c 3.9266,-2.47307 13.9005,-13.98348 12.9449,-14.9391 -0.2007,-0.20071 -2.8012,0.46902 -5.779,1.48828 -2.9777,1.01926 -7.2141,2.17815 -9.4141,2.57531 l -4,0.72211 5.1252,-5.32272 c 4.9848,-5.17701 11.0939,-14.43695 10.1484,-15.3825 -0.2582,-0.25818 -2.4626,0.64456 -4.8986,2.00609 -2.436,1.36154 -7.4553,3.61453 -11.1538,5.00666 l -6.7247,2.53115 -4.7482,-3.63034 c -8.6154,-6.58704 -12.4239,-7.79111 -24.7483,-7.82423 -9.8761,-0.0265 -11.5842,0.24425 -16.718,2.6505 -7.9397,3.72131 -15.1393,10.76911 -18.9886,18.58811 -2.6744,5.43257 -3.2577,7.91092 -3.6136,15.355 l -0.4244,8.87683 -6.1277,-0.0148 c -19.8623,-0.0479 -44.0242,-11.69654 -63.7959,-30.75651 -4.7994,-4.62661 -9.1655,-8.14048 -9.7025,-7.8086 -2.2415,1.38534 -4.612,11.24793 -4.5859,19.07989 0.034,10.29721 2.9984,17.04568 11.183,25.46199 l 5.8718,6.03801 -4.0491,-0.022 c -2.227,-0.0121 -6.0286,-0.92007 -8.448,-2.01777 -2.4194,-1.09769 -4.5962,-1.7985 -4.8373,-1.55734 -0.9727,0.9727 2.0488,11.90305 4.8275,17.46381 3.6133,7.23081 10.0273,13.32843 17.9726,17.08596 6.8807,3.25405 6.1662,4.0473 -3.6457,4.0473 -3.53,0 -6.4182,0.24293 -6.4182,0.53984 0,1.79367 4.5207,8.823 8.5726,13.32961 5.7463,6.39128 13.2864,10.88939 19.6999,11.75216 2.6248,0.35311 4.9958,1.00337 5.2687,1.44502 0.273,0.44166 -0.9746,1.90701 -2.7724,3.25634 -9.0608,6.80046 -22.7966,11.04297 -40.2969,12.44626 l -9.9719,0.79961 6,3.09859 c 8.126,4.1965 19.1642,8.00893 30,10.36156 13.5384,2.93938 38.1138,2.24434 52,-1.47066 z m 421,75.35 c -79.5442,-9.67121 -138.8666,-82.05895 -132.4417,-161.61108 3.7903,-46.93025 27.2451,-87.33552 66.4417,-114.45822 39.1595,-27.0969 95.2723,-33.2006 139.6788,-15.1935 48.3372,19.601 81.0767,58.32854 92.8687,109.85447 2.6522,11.58871 3.6953,37.33673 2.0255,50 -9.8467,74.67845 -71.2177,130.14443 -146.073,132.01806 -7.975,0.19962 -18.1,-0.0748 -22.5,-0.60973 z m 14.5,-50.08962 c 16.5535,-3.84998 33.2131,-17.2202 40.8944,-32.81978 6.376,-12.94881 7.0299,-18.4792 7.0707,-59.79697 l 0.035,-35.29804 4.25,2.91352 c 10.9247,7.48922 21.2311,10.97592 33.75,11.41782 l 7.5,0.26474 0.2736,-16.61394 0.2736,-16.61395 -7.0325,-0.50317 c -18.9173,-1.35353 -36.8742,-19.548 -38.8304,-39.34421 l -0.6843,-6.92473 h -16.5 -16.5 l -0.5,70 c -0.4423,61.93173 -0.6879,70.40342 -2.1306,73.5 -3.0157,6.4727 -7.4882,11.48044 -12.9465,14.49584 -4.7509,2.62459 -6.4142,2.99636 -13.4229,3 -9.4987,0.005 -13.6623,-1.7042 -20.6416,-8.47337 -10.7495,-10.42582 -10.4544,-27.34746 0.6736,-38.6197 6.4003,-6.4832 12.911,-8.88184 22.1051,-8.14382 l 6.3629,0.51075 V 423.80193 406.9624 l -3.6243,-0.67993 c -5.643,-1.05864 -16.0962,0.19971 -24.9368,3.00189 -16.8231,5.33236 -31.0529,18.76376 -37.7028,35.58741 -6.8102,17.22912 -6.0901,33.79344 2.1955,50.5 4.9675,10.01633 11.114,17.04712 20.1609,23.06147 15.2675,10.14983 32.4034,13.32833 49.9075,9.25724 z"
       id="path1"
       sodipodi:nodetypes="ssssssssssssssssssssscssscsssssssssssssssssssssssssssssssssssssccccsssccccssscccccsssccccccccccssssssssssssssssssscsssscsssscssssscssssscsssssssssssscsssscsssssscssscsscccsscccssssssscccsssssss" /><path
       d="m 1080.909,359.0523 c -52.288,-6.0769 -97.0958,-37.7027 -119.6413,-84.4439 -9.9018,-20.5283 -13.8961,-36.8063 -14.723,-60 -0.6353,-17.821 0.4004,-28.4256 4.2778,-43.7994 12.3609,-49.01121 50.0505,-89.598606 98.0956,-105.637596 17.0345,-5.68667 28.026,-7.41909 47.3159,-7.4577 19.564,-0.0392 29.9188,1.40926 46.387,6.48857 54.9721,16.95507 95.817,64.953636 104.5884,122.906126 1.6148,10.669 1.421,33.8722 -0.3763,45.0411 -7.3937,45.9479 -35.4529,86.0276 -76.179,108.8142 -26.4629,14.8062 -59.9363,21.553 -89.7451,18.0886 z m -48.1596,-59.0095 23.3792,-4.0655 6.9297,2.4997 c 15.8961,5.734 37.7986,7.3749 53.9679,4.0431 51.3518,-10.5812 84.9532,-61.6345 74.3143,-112.9117 -7.9503,-38.3186 -35.7798,-66.36601 -74.6065,-75.19067 -11.2011,-2.54582 -30.7263,-2.09823 -42.5114,0.97451 -34.9415,9.11029 -60.792,34.81906 -70.1006,69.71616 -1.8543,6.9516 -2.2711,11.1413 -2.2877,23 -0.023,16.185 1.9971,26.5691 7.6184,39.167 l 2.9749,6.6671 -3.0968,22.9249 c -3.5919,26.5901 -3.6284,27.241 -1.5286,27.241 0.8624,0 12.0887,-1.8295 24.9472,-4.0656 z m 50.9846,-12.5287 c -8.2907,-1.9514 -11.8865,-3.0709 -18.1367,-5.6468 l -7.1367,-2.9411 -14.8904,2.5911 c -8.1897,1.4251 -15.5766,2.5911 -16.4153,2.5911 -1.3413,0 -1.2689,-1.9192 0.6017,-15.9458 l 2.1266,-15.9458 -3.7526,-7.6933 c -6.2573,-12.8285 -8.3284,-21.9341 -8.2825,-36.4151 0.047,-14.8289 1.5727,-21.5157 7.8719,-34.5 10.2378,-21.1029 29.0455,-36.4975 52.014,-42.57495 11.0278,-2.91796 27.8548,-2.90994 39,0.0186 34.4546,9.05335 58.3218,38.02325 60.1886,73.05635 1.9961,37.4617 -22.3379,71.5778 -58.1886,81.5796 -5.8131,1.6218 -30.4145,2.9053 -35,1.8261 z m 46.3576,-32.333 c 4.5349,-2.3136 13.1486,-12.4433 13.1271,-15.4376 -0.022,-3.0174 -0.6544,-3.7429 -8.2876,-9.5022 -8.8574,-6.683 -10.5646,-6.646 -17.9483,0.3881 -3.1632,3.0134 -6.542,5.479 -7.5084,5.479 -3.1334,0 -14.5516,-8.179 -22.349,-16.0088 -5.5104,-5.5333 -8.6439,-9.735 -11.3628,-15.2363 l -3.7542,-7.596 3.6128,-3.6128 c 3.0281,-3.0281 3.6073,-4.2953 3.5784,-7.8295 -0.038,-4.6208 -4.8165,-17.7895 -7.5529,-20.8132 -3.3299,-3.6794 -8.8026,-1.6755 -15.1654,5.553 -7.276,8.266 -7.9169,16.8964 -2.2682,30.5436 5.0668,12.241 10.8757,20.906 20.4939,30.5701 11.9615,12.0185 24.9516,19.6187 40.8596,23.9057 7.1292,1.9212 10.1322,1.8379 14.525,-0.4031 z"
       style="fill:#48c859;fill-opacity:1"
       id="path1-6" /></g></svg>
