<?xml version="1.0" encoding="UTF-8" standalone="no"?>
<!-- Created with Inkscape (http://www.inkscape.org/) -->

<svg
   width="154.94653"
   height="154.94629"
   viewBox="0 0 40.99627 40.996206"
   version="1.1"
   id="svg1"
   xml:space="preserve"
   xmlns="http://www.w3.org/2000/svg"
   xmlns:svg="http://www.w3.org/2000/svg"><defs
     id="defs1" /><g
     id="layer1"
     transform="translate(-393.9512,-1384.0334)"><g
       id="g66"><rect
         style="fill:#1a1a1a;fill-opacity:1;stroke-width:0.246475;stroke-linecap:round"
         id="rect122"
         width="40.996273"
         height="40.996273"
         x="393.9512"
         y="1384.0334"
         ry="20.498137" /><path
         d="m 403.85534,1415.3763 c 0,-0.1376 0.16165,-1.447 0.35923,-2.9097 l 0.35923,-2.6591 -0.3451,-0.7735 c -0.65207,-1.4614 -0.88637,-2.6659 -0.88374,-4.5434 0.002,-1.3756 0.0503,-1.8615 0.26537,-2.668 1.0798,-4.048 4.07848,-7.0303 8.13169,-8.0871 1.36709,-0.3564 3.63202,-0.4083 4.93135,-0.113 4.5039,1.0236 7.73213,4.2772 8.65437,8.7221 1.08961,5.2517 -1.85181,10.6477 -6.85637,12.5781 -2.43856,0.9405 -5.50395,0.96 -8.0244,0.05 l -0.80386,-0.29 -2.71198,0.4717 c -1.4916,0.2594 -2.79384,0.4715 -2.89389,0.4715 -0.10901,0 -0.1819,-0.1003 -0.1819,-0.2503 z m 13.05003,-1.8864 c 4.15868,-1.1602 6.98144,-5.1178 6.74988,-9.4633 -0.21654,-4.0639 -2.98514,-7.4243 -6.98188,-8.4746 -1.29285,-0.3397 -3.24478,-0.3406 -4.52401,0 -2.66436,0.7051 -4.84605,2.4908 -6.03364,4.9388 -0.7307,1.5061 -0.9077,2.2817 -0.91316,4.002 -0.005,1.6798 0.23493,2.736 0.96079,4.2242 l 0.4353,0.8924 -0.24668,1.8497 c -0.21699,1.6271 -0.22541,1.8497 -0.0698,1.8497 0.0973,0 0.95416,-0.1352 1.90416,-0.3006 l 1.72729,-0.3005 0.82786,0.3411 c 0.72504,0.2988 1.14215,0.4287 2.10388,0.655 0.53192,0.1253 3.38567,-0.023 4.06001,-0.2118 z m -0.36742,-3.4921 c -1.84533,-0.4973 -3.3522,-1.3789 -4.73973,-2.7731 -1.11571,-1.1209 -1.78956,-2.1261 -2.37729,-3.5461 -0.65527,-1.583 -0.58092,-2.5841 0.26311,-3.5431 0.73807,-0.8385 1.37292,-1.071 1.75917,-0.6441 0.31743,0.3507 0.87178,1.8783 0.87616,2.4143 0.004,0.4101 -0.0639,0.5571 -0.41509,0.9082 l -0.41909,0.4191 0.43548,0.8812 c 0.31538,0.6381 0.67889,1.1255 1.31809,1.7675 0.90449,0.9082 2.22902,1.8569 2.59249,1.8569 0.11211,0 0.50404,-0.286 0.87097,-0.6356 0.85651,-0.8159 1.05456,-0.8202 2.08201,-0.045 0.88544,0.668 0.95886,0.7522 0.96137,1.1022 0.002,0.3474 -0.99669,1.5224 -1.52276,1.7908 -0.50955,0.2599 -0.85791,0.2696 -1.68489,0.047 z"
         style="fill:#f9f9f9;fill-opacity:1;stroke-width:0.116"
         id="path1-3" /></g></g></svg>
